<svg xmlns="http://www.w3.org/2000/svg" pointer-events="none" class="leaflet-zoom-animated" width="1153" height="690" viewBox="-96 -57 1153 690" style="transform: translate3d(-96px, -57px, 0px);"><g><path class="leaflet-interactive" stroke="black" stroke-opacity="1" stroke-width="1" stroke-linecap="round" stroke-linejoin="round" fill="#fff" fill-opacity="0.2" fill-rule="evenodd" d="M371 73L368 73L371 70L365 64L363 64L359 70L351 70L350 75L349 74L348 76L343 76L341 81L339 81L335 75L330 75L330 69L327 64L325 64L318 72L309 72L306 75L301 73L298 75L295 74L290 69L279 71L275 69L273 70L263 65L251 67L248 66L248 64L244 65L242 62L238 67L233 65L231 66L224 75L237 80L247 79L254 83L257 85L254 100L256 105L262 104L262 102L267 102L273 105L275 104L276 106L285 110L288 117L290 117L290 126L294 132L290 136L287 133L283 134L283 137L278 141L275 141L272 137L270 138L269 136L259 138L249 134L242 135L240 137L242 142L237 145L237 147L232 153L233 156L230 159L230 168L233 171L234 175L239 178L238 185L241 188L241 191L238 195L238 199L242 206L241 208L239 208L238 211L243 220L238 223L238 228L241 231L247 230L251 232L252 239L254 242L252 243L250 247L251 248L257 249L261 247L264 250L269 251L270 253L274 252L270 256L271 257L273 256L280 262L285 263L289 266L288 267L290 271L290 280L292 288L294 290L292 291L292 294L286 297L288 300L286 303L288 303L288 308L291 309L283 328L280 328L277 325L275 319L273 318L272 320L267 317L264 318L251 326L250 330L244 332L245 334L239 339L237 344L233 345L233 342L231 343L225 349L217 361L217 354L216 351L213 349L214 347L213 348L212 346L198 357L193 352L192 349L195 348L195 344L189 345L189 343L183 347L182 346L175 352L170 359L167 360L165 358L161 360L159 359L156 350L154 350L152 352L153 356L148 358L149 359L145 363L143 360L141 361L140 359L138 359L137 361L132 360L131 362L131 366L133 368L130 373L133 375L135 374L146 387L144 394L145 396L142 405L140 406L142 406L141 407L143 413L140 420L140 426L139 425L136 427L133 425L127 429L127 431L131 431L131 435L134 435L133 438L139 443L139 441L143 439L141 437L148 426L154 429L153 432L155 433L156 445L158 444L158 446L164 449L164 446L162 446L163 444L166 447L166 449L164 450L165 451L168 451L169 447L169 449L170 448L171 450L174 451L173 455L175 455L176 457L173 461L174 465L172 468L179 474L177 482L182 483L184 479L188 479L187 477L189 475L195 479L194 486L197 489L194 494L197 499L199 498L207 505L210 503L208 502L210 496L208 494L213 491L216 487L216 478L219 478L218 474L221 471L222 466L225 465L224 462L227 463L226 459L230 458L230 455L232 453L231 452L235 453L244 451L245 454L249 453L249 447L254 445L255 441L253 440L259 436L267 437L271 435L278 436L286 434L290 438L298 440L302 444L302 447L308 448L309 451L316 447L318 442L322 445L327 442L334 436L332 430L326 428L324 423L321 422L323 416L326 414L325 412L320 410L321 407L330 407L335 404L340 409L344 407L343 400L350 399L360 401L360 406L389 408L391 411L394 412L398 418L401 417L403 422L406 420L413 420L417 423L429 424L435 421L442 424L442 426L443 425L452 430L454 429L453 434L463 439L463 436L463 446L466 445L468 448L474 448L474 451L476 452L478 450L477 449L479 448L479 453L485 456L483 464L487 460L491 460L496 455L496 452L499 450L503 451L503 453L506 454L509 452L514 452L517 455L519 455L522 450L524 448L524 450L528 446L531 441L530 440L540 433L543 435L543 446L551 436L550 443L540 454L542 457L544 468L546 468L550 463L554 462L556 472L558 471L558 469L562 470L583 443L601 428L598 446L607 447L608 445L610 450L614 453L615 457L613 457L613 459L610 461L606 462L606 464L610 464L617 470L615 476L611 476L609 478L609 481L606 484L604 491L606 491L607 493L611 492L612 496L609 499L609 502L612 509L614 506L616 511L619 507L623 506L625 508L624 510L628 510L628 513L630 514L635 510L635 507L644 499L645 495L653 495L660 492L661 493L663 491L662 485L664 480L667 479L671 483L680 481L682 483L687 483L696 477L705 475L707 479L715 475L719 476L723 473L725 469L724 466L722 468L723 469L720 471L718 467L721 462L723 464L724 463L724 465L727 465L728 463L726 462L726 460L731 457L734 460L739 458L740 459L738 462L745 464L744 459L746 455L742 454L744 449L740 448L741 445L745 448L755 448L755 452L757 452L763 449L774 439L774 432L777 431L777 429L793 428L807 439L815 442L821 440L834 431L834 425L828 415L830 409L830 401L827 396L827 390L821 385L820 382L817 380L813 380L814 378L811 372L814 368L817 367L814 367L812 365L812 361L814 358L811 355L811 351L806 348L805 349L805 346L800 340L803 332L805 333L810 331L808 323L822 312L828 311L827 305L823 305L820 302L816 302L815 298L811 295L810 291L807 293L803 293L802 295L794 285L790 284L788 285L785 291L781 290L780 282L777 278L776 279L773 277L773 273L771 273L771 270L769 269L767 271L764 269L766 265L765 263L759 266L756 264L754 265L754 263L750 259L750 252L752 247L748 247L746 242L742 243L742 245L740 246L741 250L739 252L735 252L733 250L731 253L732 255L730 256L728 254L720 257L717 256L715 258L714 256L711 255L710 251L703 251L703 248L701 249L696 244L692 248L690 246L689 240L693 232L692 225L690 225L688 228L687 225L685 226L686 228L680 229L676 227L675 228L671 226L666 226L661 218L655 216L652 217L650 221L647 223L643 225L641 224L639 227L635 222L636 217L633 214L634 213L632 213L628 217L625 215L625 209L622 207L623 204L618 201L621 196L615 191L614 187L618 185L618 182L620 180L616 174L616 169L619 167L617 163L619 161L616 160L617 158L614 155L613 156L609 154L605 161L602 161L604 162L599 164L600 167L597 164L588 171L583 168L580 168L577 165L579 164L568 153L563 156L563 159L559 159L558 157L551 154L547 157L547 160L545 158L538 159L536 157L528 161L527 163L513 158L511 159L507 156L506 159L499 160L499 163L491 160L487 165L478 158L473 158L473 156L471 156L471 159L472 158L470 158L463 152L463 149L457 151L453 144L447 146L445 143L442 143L434 138L434 136L428 134L425 135L425 131L420 136L417 135L413 127L409 124L409 122L405 121L407 122L407 120L408 122L410 118L409 116L406 119L404 118L401 110L393 107L392 102L390 105L389 104L389 99L391 96L390 91L388 90L387 87L380 88L380 86L384 84L383 79L373 72L371 75L370 74zM618 169L618 171L619 170zM371 70L371 73L372 71zM523 161L524 162L524 160zM540 434L539 435L542 436z"/><path class="leaflet-interactive" stroke="#333" stroke-opacity="1" stroke-width="0.5" stroke-linecap="round" stroke-linejoin="round" stroke-dasharray="1,6" fill="#fff" fill-opacity="0.2" fill-rule="evenodd" d="M613 371L616 373L618 382L620 382L620 385L617 388L623 391L623 393L627 392L632 383L637 381L641 384L644 390L643 391L646 390L650 392L654 399L653 400L655 403L657 403L659 412L667 412L670 409L672 409L688 415L688 410L690 409L686 399L686 395L689 391L691 383L694 381L693 364L696 365L698 362L696 354L705 351L711 347L717 346L718 345L715 342L714 343L712 336L717 334L720 328L726 331L726 328L729 326L730 327L730 323L736 322L735 321L738 320L738 318L736 318L736 316L733 315L734 314L731 314L729 311L730 307L727 308L723 305L718 308L718 312L716 312L713 309L713 307L710 308L709 311L709 307L704 309L704 313L695 313L695 311L692 310L685 303L688 297L687 292L684 291L681 287L683 287L676 282L680 274L673 274L672 272L670 273L665 268L657 276L658 278L656 278L657 283L661 285L662 288L656 295L657 299L654 304L656 308L654 311L654 319L656 326L655 333L650 330L642 329L635 330L633 332L632 331L632 336L630 336L630 338L632 337L634 340L636 340L633 344L634 350L630 352L628 358L627 356L622 361L619 367L614 368L612 371zM725 305L726 304L724 304zM728 307L730 307L729 304L729 306z"/><path class="leaflet-interactive" stroke="#333" stroke-opacity="1" stroke-width="0.5" stroke-linecap="round" stroke-linejoin="round" stroke-dasharray="1,6" fill="#fff" fill-opacity="0.2" fill-rule="evenodd" d="M689 406L691 409L688 409L688 416L690 417L689 418L704 423L704 428L707 434L705 438L716 440L716 443L720 446L722 456L725 456L725 458L727 459L731 457L734 460L739 458L740 459L738 462L742 464L745 464L744 459L746 455L742 454L744 449L740 448L741 445L745 448L755 448L755 452L757 452L763 449L774 439L774 432L777 431L777 429L772 427L768 422L768 418L761 409L758 400L750 390L739 389L738 385L733 386L731 388L732 389L727 391L719 387L719 384L716 382L715 379L711 380L711 382L707 381L705 378L700 386L701 390L704 393L703 396L707 403L705 404L705 408L703 407L702 410L698 411L698 408L694 407L692 409L692 407L690 406zM743 387L746 388L743 386z"/><path class="leaflet-interactive" stroke="#333" stroke-opacity="1" stroke-width="0.5" stroke-linecap="round" stroke-linejoin="round" stroke-dasharray="1,6" fill="#fff" fill-opacity="0.2" fill-rule="evenodd" d="M371 70L365 64L363 64L359 70L351 70L350 75L349 74L348 76L343 76L341 81L339 81L335 75L330 75L330 69L327 64L325 64L318 72L309 72L306 75L301 73L298 75L295 74L290 69L279 71L275 69L273 70L263 65L251 67L248 66L248 64L244 65L242 62L238 67L233 65L231 66L224 75L237 80L247 79L257 85L254 100L256 105L262 104L262 102L267 102L269 104L275 104L276 106L285 110L288 117L290 117L290 126L294 132L290 136L287 133L283 134L283 137L278 141L275 141L272 137L270 138L269 136L259 138L249 134L242 135L240 137L242 142L237 145L237 147L232 153L233 156L230 159L230 168L233 171L234 175L239 178L238 185L241 188L241 191L238 195L238 199L242 206L241 208L239 208L238 211L243 220L238 223L238 228L241 231L247 230L251 232L252 239L254 242L252 243L250 247L251 248L257 249L261 247L264 250L272 253L282 248L281 247L287 242L291 242L295 246L297 243L296 241L294 241L297 238L297 236L295 235L298 227L301 225L304 226L309 224L309 221L311 221L312 219L316 221L320 217L319 216L322 215L323 217L335 217L336 215L345 218L347 217L347 214L349 216L355 216L355 214L357 213L358 215L361 213L364 216L366 214L367 219L368 218L368 210L364 206L368 198L371 199L371 202L375 206L376 205L373 200L372 202L372 199L374 198L374 193L372 193L372 191L374 189L375 191L377 188L383 186L388 182L390 178L386 170L388 168L388 165L394 162L396 158L401 156L401 154L404 156L411 152L410 149L416 146L420 138L420 136L417 135L413 127L409 124L409 122L405 121L407 122L407 120L408 122L410 118L409 116L406 119L404 118L401 110L393 107L392 102L390 105L389 104L389 99L391 96L390 91L388 90L387 87L380 88L380 86L384 84L383 79L373 72L371 75L371 73L368 73L370 72zM380 195L377 195L374 200L380 196zM366 201L366 208L367 202zM371 70L371 73L372 71z"/><path class="leaflet-interactive" stroke="#333" stroke-opacity="1" stroke-width="0.5" stroke-linecap="round" stroke-linejoin="round" stroke-dasharray="1,6" fill="#fff" fill-opacity="0.2" fill-rule="evenodd" d="M465 343L465 340L463 340L464 335L462 331L462 325L459 321L459 308L454 303L455 301L450 301L449 299L451 299L454 294L452 294L452 288L449 288L449 286L447 288L445 282L434 276L434 269L428 269L424 267L414 274L409 274L406 273L406 268L404 267L399 270L392 266L390 262L392 260L388 257L386 257L385 260L378 260L376 263L372 261L371 262L370 255L372 253L370 246L362 246L353 253L351 249L343 249L339 256L332 255L327 268L328 272L324 273L321 267L319 271L314 274L317 279L321 280L319 283L319 287L321 287L324 293L321 298L318 299L319 303L316 304L314 316L316 318L306 325L304 332L305 333L314 330L315 331L318 337L318 344L316 344L315 347L318 350L318 353L320 353L318 354L319 355L315 361L311 363L309 362L310 371L308 374L309 377L307 377L309 379L307 387L305 386L299 388L303 391L301 392L301 394L303 394L303 396L307 398L304 402L307 402L307 404L305 405L303 416L306 418L314 417L323 406L330 407L335 404L340 409L344 407L343 400L350 399L360 401L360 406L378 408L394 407L402 399L409 402L414 402L419 399L419 392L422 388L419 387L419 385L422 383L424 379L433 373L436 373L442 382L448 383L451 375L457 382L461 383L462 382L455 374L455 366L449 364L451 362L451 359L455 359L458 353L455 352L459 347L459 344L464 344zM371 260L375 261L372 260zM421 396L420 395zM465 340L464 340z"/><path class="leaflet-interactive" stroke="#333" stroke-opacity="1" stroke-width="0.5" stroke-linecap="round" stroke-linejoin="round" stroke-dasharray="1,6" fill="#fff" fill-opacity="0.2" fill-rule="evenodd" d="M420 136L416 146L410 149L411 152L404 156L401 154L401 156L396 158L394 162L388 165L388 168L386 170L390 178L386 184L378 188L380 197L378 197L375 200L375 198L372 201L373 200L376 205L375 206L373 203L372 204L370 198L368 198L366 201L368 203L368 218L366 218L366 214L364 216L361 213L358 215L357 213L355 214L356 215L354 215L355 216L349 216L348 214L345 217L349 223L353 224L357 235L359 237L362 236L365 238L361 243L362 246L370 246L372 252L370 258L376 263L378 260L385 260L388 257L392 260L392 266L394 266L398 270L404 267L406 268L406 272L409 274L413 274L424 267L427 269L434 268L434 276L443 282L447 282L448 280L452 279L452 275L450 272L452 271L453 261L455 259L461 259L463 261L468 257L475 257L476 250L478 251L483 248L489 252L495 253L504 247L509 247L515 253L520 254L522 256L523 252L521 249L525 247L526 242L524 239L524 232L526 231L525 227L529 228L530 226L533 226L535 221L538 222L542 217L544 218L547 216L545 211L548 209L551 203L548 202L548 194L553 187L551 184L551 172L552 170L555 170L557 167L554 161L558 161L558 157L551 154L547 157L547 160L545 158L538 159L536 157L528 161L527 163L513 158L511 159L507 156L506 159L499 160L499 163L491 160L487 165L478 158L473 158L473 156L471 156L471 159L472 158L470 158L463 152L463 149L457 151L453 144L447 146L445 143L442 143L434 138L434 136L428 134L425 135L425 131L421 134zM380 195L378 188L375 191L374 189L372 191L372 193L374 193L374 198L377 195L379 195zM366 208L366 206L364 206L365 208zM372 261L371 260L371 262zM523 161L524 162L524 160z"/><path class="leaflet-interactive" stroke="#333" stroke-opacity="1" stroke-width="0.5" stroke-linecap="round" stroke-linejoin="round" stroke-dasharray="1,6" fill="#fff" fill-opacity="0.2" fill-rule="evenodd" d="M738 385L739 381L736 371L721 369L718 367L716 364L716 351L713 347L711 347L705 351L700 352L696 356L698 362L696 365L693 364L694 381L691 383L689 391L686 395L686 399L689 406L692 407L692 409L696 407L700 411L703 407L706 407L706 401L703 397L705 393L700 389L700 386L705 378L707 381L710 382L711 380L715 379L716 382L719 384L718 387L725 389L726 391L732 389L731 388L736 385z"/><path class="leaflet-interactive" stroke="#333" stroke-opacity="1" stroke-width="0.5" stroke-linecap="round" stroke-linejoin="round" stroke-dasharray="1,6" fill="#fff" fill-opacity="0.2" fill-rule="evenodd" d="M465 343L470 352L471 357L474 357L473 362L477 363L476 360L481 359L485 362L485 367L488 370L500 366L506 371L506 366L509 366L511 363L509 360L510 358L511 357L513 359L514 357L512 354L516 349L514 347L523 344L513 344L511 342L513 338L515 338L530 325L532 326L533 335L538 339L544 333L547 332L548 329L552 331L555 330L556 325L562 328L566 326L568 322L570 322L574 317L578 318L578 314L582 314L581 312L584 310L583 307L584 308L588 305L591 296L594 294L592 293L593 284L592 282L589 282L587 277L583 276L577 270L576 272L575 270L571 268L570 269L567 265L562 262L562 260L559 261L556 259L552 259L548 261L544 256L541 257L538 248L527 241L525 247L521 249L523 252L523 256L515 253L509 247L504 247L496 253L490 252L483 248L480 249L479 251L476 250L475 257L471 256L464 258L463 261L462 259L453 260L452 271L450 272L452 278L445 282L447 288L449 286L449 288L451 288L452 294L454 294L451 299L449 298L450 300L454 301L454 303L459 308L459 321L462 325L462 331L464 334L463 336L465 342zM464 340L463 340zM513 338L514 338z"/><path class="leaflet-interactive" stroke="#333" stroke-opacity="1" stroke-width="0.5" stroke-linecap="round" stroke-linejoin="round" stroke-dasharray="1,6" fill="#fff" fill-opacity="0.2" fill-rule="evenodd" d="M591 371L593 372L602 361L605 361L605 367L611 371L619 367L626 356L628 358L630 352L634 350L633 344L636 340L630 338L630 336L632 336L632 331L633 332L634 330L639 329L650 330L655 333L656 332L654 319L654 311L656 308L654 304L657 299L656 295L662 289L662 286L659 285L656 279L665 268L670 273L671 272L673 274L680 274L679 266L681 265L681 263L683 263L684 257L686 257L685 253L687 247L690 248L689 240L693 232L692 225L690 225L688 228L687 225L685 226L686 228L680 229L676 227L675 228L671 226L666 226L661 218L657 216L652 217L649 223L650 229L648 231L651 235L648 245L648 249L650 250L645 255L645 260L641 262L638 261L638 264L634 266L633 265L635 264L632 260L630 263L627 259L624 261L615 257L607 265L605 265L604 262L601 262L600 264L597 265L592 261L584 263L581 261L579 262L580 267L577 270L583 277L586 277L589 282L593 283L592 293L594 294L591 296L590 302L584 308L583 307L584 310L582 310L582 314L578 314L579 320L581 320L582 323L584 323L588 328L587 335L589 336L587 339L589 339L588 342L591 345L589 348L590 349L588 356L590 359L589 362L591 364L591 369zM589 361L589 358L588 360zM584 341L585 340L584 341z"/><path class="leaflet-interactive" stroke="#333" stroke-opacity="1" stroke-width="0.5" stroke-linecap="round" stroke-linejoin="round" stroke-dasharray="1,6" fill="#fff" fill-opacity="0.2" fill-rule="evenodd" d="M420 395L421 396L419 397L419 399L414 402L409 402L403 399L399 403L397 403L395 407L389 408L391 411L394 412L398 418L401 417L403 422L406 420L413 420L417 423L429 424L435 421L442 424L442 426L443 425L452 430L454 429L453 434L463 439L463 436L463 446L466 445L468 448L474 448L474 451L476 452L478 450L477 449L479 448L479 453L485 456L483 464L487 460L491 460L496 455L496 452L499 450L503 451L503 453L506 454L509 452L514 452L517 455L519 455L522 450L524 448L524 450L528 446L531 441L530 440L540 433L543 435L543 446L551 436L550 443L540 454L542 457L544 468L546 468L550 463L554 462L556 472L558 471L558 469L562 470L583 443L604 426L607 422L612 420L616 421L624 419L629 411L648 402L647 399L634 391L630 393L623 393L624 394L620 399L618 400L616 398L613 402L609 404L607 403L597 405L591 397L583 392L580 392L577 396L562 397L557 397L553 392L551 393L549 398L546 398L537 392L531 396L531 401L529 401L532 404L520 403L511 399L512 395L505 382L505 375L503 373L506 371L500 366L494 367L489 370L485 367L486 364L481 359L476 360L477 363L473 362L474 357L470 356L469 350L467 348L468 346L465 343L459 344L455 352L458 353L455 359L451 359L449 364L455 366L455 374L462 381L459 383L457 382L451 375L448 383L442 382L437 374L433 373L424 379L419 387L421 388L419 394zM633 409L630 412L634 409zM419 397L421 396L420 395zM540 434L539 435L542 436z"/><path class="leaflet-interactive" stroke="#333" stroke-opacity="1" stroke-width="0.5" stroke-linecap="round" stroke-linejoin="round" stroke-dasharray="1,6" fill="#fff" fill-opacity="0.2" fill-rule="evenodd" d="M744 388L742 390L750 390L755 396L760 404L761 409L768 417L768 422L775 429L793 428L807 439L815 442L821 440L834 431L834 425L828 415L830 409L830 401L827 396L827 390L821 385L820 382L817 380L813 380L814 378L811 372L814 368L817 367L814 367L812 365L812 361L814 358L811 355L811 351L806 348L805 349L805 346L800 340L803 332L805 333L810 331L808 323L822 312L828 311L827 305L823 305L820 302L816 302L815 298L811 295L810 291L807 293L803 293L802 295L800 294L794 285L790 284L788 285L785 291L781 290L780 282L777 278L776 279L773 277L773 273L771 273L771 270L769 269L767 271L764 269L766 265L765 263L759 266L756 264L754 265L754 263L750 259L750 252L752 247L748 247L746 242L742 243L742 245L740 246L741 250L739 252L735 252L733 250L731 253L732 255L730 256L728 254L720 257L717 256L715 258L714 256L711 255L710 251L703 251L703 248L701 249L696 244L692 248L690 246L690 248L687 247L685 252L686 256L684 257L683 263L681 263L681 265L679 266L680 274L676 282L679 285L683 286L681 287L682 289L687 291L688 297L685 302L686 305L695 311L696 314L702 312L704 313L703 309L706 309L708 307L709 310L712 307L715 312L718 312L719 310L717 308L725 303L725 307L727 307L726 308L729 306L728 304L729 305L729 310L731 314L734 314L733 315L736 316L736 318L738 318L738 320L734 323L730 322L730 327L729 326L726 328L726 331L725 329L723 330L721 328L719 329L719 332L717 334L713 336L712 335L712 338L714 340L714 343L715 342L717 345L713 347L716 351L716 364L721 369L736 371L739 381L739 389L741 390L743 387L745 388zM725 305L723 305L724 307L725 306zM742 390L744 388L743 387L741 390z"/><path class="leaflet-interactive" stroke="#333" stroke-opacity="1" stroke-width="0.5" stroke-linecap="round" stroke-linejoin="round" stroke-dasharray="1,6" fill="#fff" fill-opacity="0.2" fill-rule="evenodd" d="M688 415L673 409L661 413L659 412L657 403L655 403L653 400L654 399L650 392L646 390L643 391L644 390L641 384L637 381L632 383L627 392L630 393L637 391L647 399L647 403L633 409L630 412L629 411L624 419L616 421L612 420L607 422L601 428L599 435L600 440L598 446L607 447L608 445L610 450L615 455L615 457L613 457L613 459L610 461L606 462L606 464L610 464L616 468L616 474L615 476L611 476L609 478L609 481L604 488L604 491L606 491L607 493L611 492L612 496L609 499L609 502L612 509L614 506L616 511L619 507L623 506L625 508L624 510L628 510L628 513L630 514L632 513L635 510L635 507L644 499L645 495L653 495L660 492L661 493L663 491L663 481L667 479L671 483L680 481L682 483L687 483L696 477L705 475L707 479L709 479L710 477L713 477L715 475L719 476L723 473L725 467L724 466L722 468L723 469L720 471L718 467L721 462L723 464L724 463L724 465L727 465L728 463L726 462L727 459L725 459L725 456L722 456L720 446L716 444L716 440L709 440L705 438L707 434L706 429L704 428L705 423L690 418L689 419L690 417L688 416zM633 409L629 411L630 412L632 410z"/><path class="leaflet-interactive" stroke="#333" stroke-opacity="1" stroke-width="0.5" stroke-linecap="round" stroke-linejoin="round" stroke-dasharray="1,6" fill="#fff" fill-opacity="0.2" fill-rule="evenodd" d="M650 221L643 225L641 224L639 227L635 222L636 217L633 214L634 213L632 213L628 217L625 215L625 209L622 207L623 204L618 201L621 196L615 191L614 187L618 185L618 182L620 180L616 174L616 169L619 167L617 163L619 161L616 160L617 158L614 155L613 156L609 154L605 161L602 161L604 162L599 164L600 167L597 164L588 171L583 168L580 168L577 165L579 164L568 153L563 156L563 159L554 161L557 167L555 170L551 171L551 184L553 186L548 194L548 202L551 205L545 211L547 216L545 218L543 217L538 222L535 221L533 226L530 226L529 228L526 227L526 231L524 232L524 238L526 242L527 241L529 243L532 243L535 247L538 248L541 257L545 257L548 261L551 259L556 259L559 261L562 260L563 263L576 272L580 267L579 263L581 261L583 263L592 261L596 265L603 262L605 265L607 265L615 257L624 261L626 259L630 263L632 260L635 263L633 264L634 266L636 264L638 265L638 261L645 261L645 256L649 250L648 242L651 236L648 232L650 224L649 223zM618 169L618 171L619 170z"/><path class="leaflet-interactive" stroke="#333" stroke-opacity="1" stroke-width="0.5" stroke-linecap="round" stroke-linejoin="round" stroke-dasharray="1,6" fill="#fff" fill-opacity="0.2" fill-rule="evenodd" d="M316 272L315 268L310 265L305 265L295 274L290 274L290 280L292 288L294 290L292 291L292 294L286 297L288 300L286 303L288 303L288 308L291 309L283 328L280 328L277 325L275 319L273 318L272 320L267 317L264 318L251 326L250 330L244 332L245 334L239 339L237 344L233 345L233 342L231 343L225 349L217 361L217 354L216 351L213 349L214 347L213 348L212 346L198 357L193 352L192 349L195 348L195 344L189 345L189 343L183 347L182 346L175 352L170 359L167 360L165 358L161 360L159 359L156 350L154 350L152 352L153 356L148 358L149 359L145 363L143 360L141 361L140 359L138 359L137 361L132 360L131 362L131 366L133 368L130 373L133 375L135 374L146 387L144 394L145 396L142 405L140 406L142 406L141 407L143 413L140 420L140 426L139 425L136 427L133 425L127 429L127 431L131 431L131 435L134 435L133 438L139 443L139 441L143 439L141 437L148 426L154 429L153 432L155 433L156 445L158 444L158 446L164 449L164 446L162 446L163 444L166 447L166 449L164 450L165 451L168 451L169 447L169 449L170 448L171 450L174 451L173 455L175 455L176 457L173 461L174 465L172 468L179 474L177 482L182 483L184 479L188 479L187 477L189 475L192 476L195 479L194 486L197 489L194 494L197 499L199 498L207 505L210 503L208 502L210 496L208 494L213 491L216 487L216 478L219 478L218 474L221 471L222 466L225 465L224 462L227 463L226 459L230 458L230 455L232 453L231 452L235 453L244 451L245 454L249 453L249 447L254 445L255 441L253 440L255 438L259 436L267 437L271 435L278 436L286 434L290 438L298 440L302 444L302 447L308 448L309 451L316 447L318 442L322 445L334 436L332 430L326 428L324 423L321 422L323 416L326 414L325 412L320 410L314 417L303 417L304 408L307 404L307 402L304 402L307 399L303 396L303 394L301 394L301 392L303 391L299 388L305 386L307 387L309 380L307 377L309 377L308 374L310 371L309 363L315 361L319 355L318 354L320 354L318 353L315 347L316 344L318 344L318 337L315 331L310 330L306 333L304 332L306 326L312 320L316 319L316 304L319 303L318 299L321 298L324 294L321 287L319 287L319 283L321 280L315 277L314 274L316 273z"/><path class="leaflet-interactive" stroke="#333" stroke-opacity="1" stroke-width="0.5" stroke-linecap="round" stroke-linejoin="round" stroke-dasharray="1,6" fill="#fff" fill-opacity="0.2" fill-rule="evenodd" d="M591 371L586 371L580 367L567 368L565 365L563 367L560 361L556 363L556 359L551 356L543 358L545 362L548 362L548 366L545 372L547 380L549 380L549 390L550 389L550 392L554 393L557 397L577 396L580 392L583 392L591 397L596 403L595 404L598 405L607 403L609 404L613 402L616 398L618 400L623 396L623 391L617 388L621 382L619 382L616 377L617 373L611 371L608 368L605 368L606 361L600 362L598 367L594 370L594 372L592 371zM618 381L618 381z"/><path class="leaflet-interactive" stroke="#333" stroke-opacity="1" stroke-width="0.5" stroke-linecap="round" stroke-linejoin="round" stroke-dasharray="1,6" fill="#fff" fill-opacity="0.2" fill-rule="evenodd" d="M506 371L503 373L505 382L512 395L512 400L520 403L532 404L529 401L531 401L532 399L531 396L537 392L540 395L544 396L545 398L550 397L552 392L550 392L550 389L549 390L549 380L547 380L547 376L545 373L548 366L548 362L544 362L543 353L538 353L537 360L533 360L530 352L523 352L522 354L519 351L520 347L523 345L520 344L516 348L514 348L516 349L512 354L514 356L513 359L511 357L509 360L511 363L509 366L505 368L506 369zM519 346L518 345L517 347L515 347L516 348L519 346zM547 368L547 369zM551 392L551 392zM547 363L547 363z"/><path class="leaflet-interactive" stroke="#333" stroke-opacity="1" stroke-width="0.5" stroke-linecap="round" stroke-linejoin="round" stroke-dasharray="1,6" fill="#fff" fill-opacity="0.2" fill-rule="evenodd" d="M589 361L588 353L591 345L584 341L584 337L589 336L588 328L584 323L582 323L581 320L579 320L579 318L575 317L566 326L562 328L556 325L556 328L552 331L548 329L547 332L544 333L538 339L533 336L531 325L517 335L515 338L513 338L511 341L515 345L521 343L523 344L520 347L519 351L521 354L523 352L529 352L533 360L538 359L537 354L539 352L543 353L545 357L551 356L555 358L556 363L559 361L563 367L565 365L567 367L580 367L586 371L591 372L591 365L589 362zM589 336L584 336L584 340L588 342L588 338zM590 359L589 360L590 359zM533 335L535 336L534 335zM513 338L513 338zM564 366L563 367z"/><path class="leaflet-interactive" stroke="#333" stroke-opacity="1" stroke-width="0.5" stroke-linecap="round" stroke-linejoin="round" stroke-dasharray="1,6" fill="#fff" fill-opacity="0.2" fill-rule="evenodd" d="M274 252L270 256L275 257L280 262L285 263L289 266L289 273L292 275L299 271L305 265L310 265L318 272L320 267L324 273L327 272L328 270L327 269L331 259L331 255L339 256L342 250L347 248L351 249L353 253L362 246L361 243L365 238L362 236L359 237L357 235L355 228L351 223L349 223L346 220L346 218L337 215L336 217L323 217L323 215L319 216L320 217L316 221L312 219L312 221L309 221L309 224L304 226L301 225L298 227L295 235L297 235L297 238L294 241L296 241L297 243L295 246L291 242L287 242L281 247L281 249L275 251z"/></g></svg>